<svg style="object-fit:cover" id="my-svg" version="1" baseProfile="full" width="100%" height="100%" viewBox="0 0 1676 737" xmlns="http://www.w3.org/2000/svg"><rect width="1676" height="737" fill="#ffffff"/><defs><linearGradient id="linear-gradient" x1="0" x2="1" y1="0" y2="1"><stop offset="0%" stop-color="#21212170"/><stop offset="100%" stop-color="#e2e2e270"/></linearGradient></defs><path transform="scale(1, 1)" d="M 0,737 V 0,294 C 99.03355089888925,251.28959120577122 198.0671017977785,208.5791824115424 306,201 C 413.9328982022215,193.4208175884576 530.7651437077751,220.97286155960154 608,262 C 685.2348562922249,303.02713844039846 722.8723233711211,357.5293713500515 799,353 C 875.1276766288789,348.4706286499485 989.745562807741,284.9096530401924 1104,285 C 1218.254437192259,285.0903469598076 1332.145425397916,348.832016489179 1448,374 C 1563.854574602084,399.167983510821 1681.6727356005954,385.7622810030917 1720,366 C 1758.3272643994046,346.2377189969083 1717.1636321997023,320.1188594984542 1676,294 C 1676,294 1676,737 1676,737 Z" stroke="none" stroke-width="0" fill="url(#linear-gradient)" class="transition-all duration-300 ease-in-out delay-150" style="transform-origin: center center;"/><defs><linearGradient id="linear-gradient" x1="0" x2="1" y1="0" y2="1"><stop offset="0%" stop-color="#21212180"/><stop offset="100%" stop-color="#e2e2e280"/></linearGradient></defs><path transform="scale(1, 1)" d="M 0,737 V 0,442 C 92.50177487690371,406.41360357265546 185.00354975380742,370.82720714531087 279,409 C 372.9964502461926,447.17279285468913 468.48757586167415,559.1047749914119 565,551 C 661.5124241383259,542.8952250085881 759.046146799496,414.7536928890416 856,363 C 952.953853200504,311.2463071109584 1049.3278369403413,335.88045345242176 1130,391 C 1210.6721630596587,446.11954654757824 1275.6425054391389,531.7244933012711 1369,529 C 1462.3574945608611,526.2755066987289 1584.1021413031033,435.22157334249397 1640,406 C 1695.8978586968967,376.77842665750603 1685.9489293484485,409.38921332875304 1676,442 C 1676,442 1676,737 1676,737 Z" stroke="none" stroke-width="0" fill="url(#linear-gradient)" class="transition-all duration-300 ease-in-out delay-150" style="transform-origin: center center;"/><defs><linearGradient id="linear-gradient" x1="0" x2="1" y1="0" y2="1"><stop offset="0%" stop-color="#21212190"/><stop offset="100%" stop-color="#e2e2e290"/></linearGradient></defs><path transform="scale(1, 1)" d="M 0,737 V 0,663 C 116.11015687621668,615.5125386465132 232.22031375243336,568.0250772930265 313,586 C 393.77968624756664,603.9749227069735 439.2289018664834,687.4122294744074 512,707 C 584.7710981335166,726.5877705255926 684.8640787816329,682.3260048093438 796,672 C 907.1359212183671,661.6739951906562 1029.3147830069852,685.2837512882172 1134,688 C 1238.6852169930148,690.7162487117828 1325.876789190427,672.5389900377876 1433,639 C 1540.123210809573,605.4610099622124 1667.1780602313065,556.5602885606321 1711,558 C 1754.8219397686935,559.4397114393679 1715.4109698843467,611.2198557196839 1676,663 C 1676,663 1676,737 1676,737 Z" stroke="none" stroke-width="0" fill="url(#linear-gradient)" class="transition-all duration-300 ease-in-out delay-150" style="transform-origin: center center;"/><defs><linearGradient id="linear-gradient" x1="0" x2="1" y1="0" y2="1"><stop offset="0%" stop-color="#212121ff"/><stop offset="100%" stop-color="#e2e2e2ff"/></linearGradient></defs><path transform="scale(1, 1)" d="M 0,737 V 0,994 C 111.15309744646743,980.4376502919959 222.30619489293485,966.8753005839917 304,986 C 385.69380510706515,1005.1246994160083 437.928317874728,1056.9364479560288 536,1056 C 634.071682125272,1055.0635520439712 777.980533608153,1001.3789075918929 874,979 C 970.019466391847,956.6210924081071 1018.14954769266,965.5479216763998 1094,986 C 1169.85045230734,1006.4520783236002 1273.421275621207,1038.4294057025077 1396,1032 C 1518.578724378793,1025.5705942974923 1660.165349822512,980.7344555135692 1710,968 C 1759.834650177488,955.2655444864308 1717.9173250887438,974.6327722432154 1676,994 C 1676,994 1676,737 1676,737 Z" stroke="none" stroke-width="0" fill="url(#linear-gradient)" class="transition-all duration-300 ease-in-out delay-150" style="transform-origin: center center;"/></svg>