<svg style="object-fit:cover" id="my-svg" version="1" baseProfile="full" width="100%" height="100%" viewBox="0 0 1676 737" xmlns="http://www.w3.org/2000/svg"><rect width="1676" height="737" fill="#000000"/><path transform="scale(-1, 1)" d="M 0,737 V 0,294 C 69.0245921717999,262.85361037967556 138.0491843435998,231.70722075935112 192,266 C 245.9508156564002,300.2927792406489 284.82785479740073,400.02472734227115 335,392 C 385.17214520259927,383.97527265772885 446.6393964667974,268.1938698715644 507,236 C 567.3606035332026,203.80613012843557 626.6145593354099,255.19979317147113 678,279 C 729.3854406645901,302.80020682852887 772.9023661915631,299.0069574425511 832,323 C 891.0976338084369,346.9930425574489 965.7759758983375,398.7723770583246 1025,365 C 1084.2240241016625,331.2276229416754 1127.9937302150863,211.90353432415063 1186,220 C 1244.0062697849137,228.09646567584937 1316.249103241317,363.61348564507307 1365,373 C 1413.750896758683,382.38651435492693 1439.0098568196454,265.64252309555724 1503,245 C 1566.9901431803546,224.35747690444276 1669.7114694801014,299.8164219726979 1705,324 C 1740.2885305198986,348.1835780273021 1708.1442652599494,321.091789013651 1676,294 C 1676,294 1676,737 1676,737 Z" stroke="none" stroke-width="0" fill="#ffffff80" class="transition-all duration-300 ease-in-out delay-150" style="transform-origin: center center;"/><path transform="scale(-1, 1)" d="M 0,737 V 0,442 C 49.38711583401066,402.0462105932331 98.77423166802132,362.0924211864662 155,351 C 211.22576833197868,339.9075788135338 274.29018916192535,357.6765258473683 339,397 C 403.70981083807465,436.3234741526317 470.0650116842771,497.2014754240606 517,527 C 563.9349883157229,556.7985245759394 591.4497641009659,555.5175724563899 641,539 C 690.5502358990341,522.4824275436101 762.1359319118594,490.72823475038035 825,444 C 887.8640680881406,397.27176524961965 942.0065082515966,335.56948854208906 1007,343 C 1071.9934917484034,350.43051145791094 1147.8380350817545,426.9938110812634 1200,437 C 1252.1619649182455,447.0061889187366 1280.6413514213853,390.4552671328572 1333,391 C 1385.3586485786147,391.5447328671428 1461.5965592327038,449.18512038730773 1528,475 C 1594.4034407672962,500.81487961269227 1650.972411647799,494.8042513179121 1674,484 C 1697.027588352201,473.1957486820879 1686.5137941761004,457.59787434104396 1676,442 C 1676,442 1676,737 1676,737 Z" stroke="none" stroke-width="0" fill="#ffffff90" class="transition-all duration-300 ease-in-out delay-150" style="transform-origin: center center;"/><path transform="scale(-1, 1)" d="M 0,737 V 0,663 C 74.1016977765343,697.4794242800401 148.2033955530686,731.9588485600804 197,713 C 245.7966044469314,694.0411514399196 269.28811556425995,621.6440300397188 309,619 C 348.71188443574005,616.3559699602812 404.64414218989157,683.4650312810442 473,708 C 541.3558578101084,732.5349687189558 622.135315676174,714.4958448361044 676,723 C 729.864684323826,731.5041551638956 756.8145951054123,766.5515893745384 809,755 C 861.1854048945877,743.4484106254616 938.6063039021767,685.2977976657417 1010,669 C 1081.3936960978233,652.7022023342583 1146.7601892858809,678.2572199624947 1203,704 C 1259.2398107141191,729.7427800375053 1306.3529389542998,755.6733224842798 1347,756 C 1387.6470610457002,756.3266775157202 1421.8280548969194,731.0494901003863 1485,698 C 1548.1719451030806,664.9505098996137 1640.3348414580232,624.1287171141753 1677,617 C 1713.6651585419768,609.8712828858247 1694.8325792709884,636.4356414429124 1676,663 C 1676,663 1676,737 1676,737 Z" stroke="none" stroke-width="0" fill="#ffffffff" class="transition-all duration-300 ease-in-out delay-150" style="transform-origin: center center;"/></svg>