<svg style="object-fit:cover" id="my-svg" version="1" baseProfile="full" width="100%" height="100%" viewBox="0 0 1676 737" xmlns="http://www.w3.org/2000/svg"><rect width="1676" height="737" fill="#000000"/><path transform="scale(1, 1)" d="M 0,737 V 0,221 C 68.86057928325971,209.96502209131074 137.72115856651942,198.93004418262151 199,199 C 260.2788414334806,199.06995581737849 313.9759450171821,210.24484536082474 389,204 C 464.0240549828179,197.75515463917526 560.3750613647521,174.09057437407955 627,176 C 693.6249386352479,177.90942562592045 730.5238095238094,205.39285714285717 803,233 C 875.4761904761906,260.60714285714283 983.52970054001,288.3379970544919 1069,258 C 1154.47029945999,227.66200294550814 1217.3573883161512,139.2551546391753 1276,144 C 1334.6426116838488,148.7448453608247 1389.0407461953855,246.64138438880707 1455,275 C 1520.9592538046145,303.35861561119293 1598.4796269023072,262.17930780559647 1676,221 C 1676,221 1676,737 1676,737 Z" stroke="none" stroke-width="0" fill="#ffffff80" class="transition-all duration-300 ease-in-out delay-150" style="transform-origin: center center;"/><path transform="scale(1, 1)" d="M 0,737 V 0,331 C 77.32799459990181,381.13733431516937 154.65598919980363,431.2746686303387 231,409 C 307.3440108001964,386.7253313696613 382.7040378006873,292.0386597938144 453,281 C 523.2959621993127,269.9613402061856 588.5278595974473,342.57069219440353 660,361 C 731.4721404025527,379.42930780559647 809.1845238095237,343.67857142857144 871,312 C 932.8154761904763,280.32142857142856 978.7340451644577,252.71502209131074 1038,287 C 1097.2659548355423,321.28497790868926 1169.879295532646,417.4613402061855 1244,412 C 1318.120704467354,406.5386597938145 1393.7487727049584,299.43961708394704 1466,269 C 1538.2512272950416,238.560382916053 1607.1256136475208,284.7801914580265 1676,331 C 1676,331 1676,737 1676,737 Z" stroke="none" stroke-width="0" fill="#ffffff90" class="transition-all duration-300 ease-in-out delay-150" style="transform-origin: center center;"/><path transform="scale(1, 1)" d="M 0,737 V 0,497 C 59.65494599901818,494.6708394698085 119.30989199803636,492.34167893961705 180,494 C 240.69010800196364,495.65832106038295 302.4153780068728,501.30412371134025 389,516 C 475.5846219931272,530.6958762886597 587.0285959744723,554.441826215022 663,545 C 738.9714040255277,535.558173784978 779.4702380952381,492.9285714285714 838,497 C 896.5297619047619,501.0714285714286 973.0904516445753,551.8438880706922 1050,541 C 1126.9095483554247,530.1561119293078 1204.1679553264605,457.69587628865975 1281,455 C 1357.8320446735395,452.30412371134025 1434.2377270495829,519.3726067746686 1500,538 C 1565.7622729504171,556.6273932253314 1620.8811364752087,526.8136966126657 1676,497 C 1676,497 1676,737 1676,737 Z" stroke="none" stroke-width="0" fill="#ffffffff" class="transition-all duration-300 ease-in-out delay-150" style="transform-origin: center center;"/></svg>